<svg xmlns="http://www.w3.org/2000/svg" viewBox="0 0 20.59 15.75"><defs><style>.cls-1{fill:#828290}</style></defs><g id="Layer_2" data-name="Layer 2"><g id="Layer_1-2" data-name="Layer 1"><path d="M20.46 7.67 19.77 7a.43.43 0 0 0-.6 0l-5.46 5.46V.42a.42.42 0 0 0-.42-.42h-1a.42.42 0 0 0-.42.42v12L6.43 7a.42.42 0 0 0-.59 0l-.7.7a.44.44 0 0 0 0 .6l7.36 7.36a.43.43 0 0 0 .6 0l7.36-7.36a.42.42 0 0 0 0-.63" class="cls-1"/><path d="M.42 0A.42.42 0 0 0 0 .42v1a.42.42 0 0 0 .42.42h12V0Z" class="cls-1"/></g></g></svg>