<svg xmlns="http://www.w3.org/2000/svg" width="80" height="80" fill="none" viewBox="0 0 50 50"><path fill="#000" d="M6.6 33.19c.436 0 .79-3.667.79-8.19s-.354-8.19-.79-8.19c-.436 0-.79 3.667-.79 8.19s.354 8.19.79 8.19M8.7 34.1c.486 0 .88-4.074.88-9.1s-.394-9.1-.88-9.1-.88 4.074-.88 9.1.394 9.1.88 9.1M11.04 35.12c.536 0 .97-4.53.97-10.12 0-5.59-.434-10.12-.97-10.12s-.97 4.53-.97 10.12c0 5.59.434 10.12.97 10.12M13.63 36.24c.596 0 1.08-5.032 1.08-11.24s-.484-11.24-1.08-11.24c-.597 0-1.08 5.032-1.08 11.24s.483 11.24 1.08 11.24M16.51 37.49c.663 0 1.2-5.592 1.2-12.49 0-6.898-.537-12.49-1.2-12.49-.663 0-1.2 5.592-1.2 12.49 0 6.898.537 12.49 1.2 12.49M19.72 38.88c.735 0 1.33-6.214 1.33-13.88s-.596-13.88-1.33-13.88c-.735 0-1.33 6.214-1.33 13.88s.595 13.88 1.33 13.88M23.28 40.42c.817 0 1.48-6.904 1.48-15.42s-.663-15.42-1.48-15.42S21.8 16.484 21.8 25s.663 15.42 1.48 15.42M27.23 42.13c.911 0 1.65-7.67 1.65-17.13 0-9.46-.739-17.13-1.65-17.13-.911 0-1.65 7.67-1.65 17.13 0 9.46.739 17.13 1.65 17.13M31.62 44.04c1.01 0 1.83-8.524 1.83-19.04 0-10.515-.82-19.04-1.83-19.04-1.01 0-1.83 8.525-1.83 19.04 0 10.516.82 19.04 1.83 19.04M36.5 46.15c1.121 0 2.03-9.47 2.03-21.15 0-11.68-.909-21.15-2.03-21.15-1.121 0-2.03 9.47-2.03 21.15 0 11.68.909 21.15 2.03 21.15M41.92 48.5c1.248 0 2.26-10.521 2.26-23.5S43.168 1.5 41.92 1.5c-1.248 0-2.26 10.521-2.26 23.5s1.012 23.5 2.26 23.5" class="ccustom"/></svg>